<svg width="96" height="96" viewBox="0 0 96 96" fill="none" xmlns="http://www.w3.org/2000/svg" role="img" aria-labelledby="title desc">
  <title id="title">AI Translator logo</title>
  <desc id="desc">A rounded gradient mark with language bubbles.</desc>
  <rect x="8" y="8" width="80" height="80" rx="20" fill="url(#paint0_linear)"/>
  <path d="M27 35C27 30.5817 30.5817 27 35 27H47C51.4183 27 55 30.5817 55 35V43C55 47.4183 51.4183 51 47 51H42L34 58V51C30.134 51 27 47.866 27 44V35Z" fill="white" fill-opacity="0.96"/>
  <path d="M41 43L45.8 31H49.2L54 43H50.8L49.95 40.65H45.05L44.2 43H41ZM45.9 38.15H49.1L47.5 33.65L45.9 38.15Z" fill="#4F46E5"/>
  <path d="M43 45.5C43 42.4624 45.4624 40 48.5 40H61C64.866 40 68 43.134 68 47V55C68 58.866 64.866 62 61 62H58V69L50.3 62H48.5C45.4624 62 43 59.5376 43 56.5V45.5Z" fill="#ECFEFF"/>
  <path d="M52 55.5H60M56 46.5V55.5M51.5 49.5H62.5M54 49.5C54.7 52 56.2 54.1 60.5 56.5" stroke="#06B6D4" stroke-width="2.5" stroke-linecap="round" stroke-linejoin="round"/>
  <defs>
    <linearGradient id="paint0_linear" x1="8" y1="8" x2="88" y2="88" gradientUnits="userSpaceOnUse">
      <stop stop-color="#4F46E5"/>
      <stop offset="0.55" stop-color="#7C3AED"/>
      <stop offset="1" stop-color="#06B6D4"/>
    </linearGradient>
  </defs>
</svg>
